<svg width="48" height="48" viewBox="0 0 48 48" fill="none" xmlns="http://www.w3.org/2000/svg">
<path d="M9.97306 30.8266C8.90283 30.7886 8.02175 30.4947 7.33968 29.9455C7.20678 29.8414 6.89457 29.5285 6.7905 29.3963C6.51556 29.0462 6.3264 28.7051 6.1935 28.3261C5.80535 27.1609 6.00435 25.6358 6.76167 23.9587C7.41562 22.5284 8.41975 21.1073 10.1721 19.137C10.428 18.8431 11.1952 18 11.2043 18C11.2043 18 11.1663 18.0759 11.1094 18.161C10.6544 18.9282 10.2663 19.8191 10.0483 20.6053C9.70726 21.8555 9.74523 22.9264 10.1714 23.7597C10.4653 24.3279 10.9575 24.8299 11.5165 25.1049C12.4925 25.5879 13.9319 25.6259 15.6751 25.2188C15.7982 25.1907 21.7667 23.6085 28.9377 21.6945C36.1276 19.7811 42.0012 18.218 42.0012 18.218C42.0012 18.218 25.329 25.351 16.6701 29.0546C15.2968 29.6417 14.9368 29.7838 14.2927 30.0116C12.6444 30.5896 11.1663 30.8737 9.97306 30.8266Z" fill="#FF6452"/>
</svg>
